<?xml version="1.0" encoding="UTF-8" standalone="no"?>
<!-- Created with Inkscape (http://www.inkscape.org/) -->

<svg
   width="17.299999pt"
   height="20.6pt"
   viewBox="0 0 6.1030555 7.2672223"
   version="1.1"
   id="svg1211"
   inkscape:version="1.1.1 (3bf5ae0d25, 2021-09-20)"
   sodipodi:docname="quasar.svg"
   xmlns:inkscape="http://www.inkscape.org/namespaces/inkscape"
   xmlns:sodipodi="http://sodipodi.sourceforge.net/DTD/sodipodi-0.dtd"
   xmlns="http://www.w3.org/2000/svg"
   xmlns:svg="http://www.w3.org/2000/svg">
  <sodipodi:namedview
     id="namedview1213"
     pagecolor="#505050"
     bordercolor="#eeeeee"
     borderopacity="1"
     inkscape:pageshadow="0"
     inkscape:pageopacity="0"
     inkscape:pagecheckerboard="0"
     inkscape:document-units="px"
     showgrid="false"
     inkscape:zoom="24.886869"
     inkscape:cx="25.555646"
     inkscape:cy="12.295641"
     inkscape:window-width="3440"
     inkscape:window-height="1346"
     inkscape:window-x="-11"
     inkscape:window-y="-11"
     inkscape:window-maximized="1"
     inkscape:current-layer="layer1"
     units="pt" />
  <defs
     id="defs1208" />
  <g
     inkscape:label="Layer 1"
     inkscape:groupmode="layer"
     id="layer1">
    <g
       id="g50"
       transform="matrix(0.06762838,0,0,-0.06762838,2.4915643,4.1642029)"
       style="fill:#ffffff">
      <path
         d="m 0,0 c -3.464,2.368 -5.079,6.431 -4.492,10.319 -0.038,-2.698 1.23,-5.363 3.625,-7 C 0.203,2.588 1.384,2.17 2.584,1.989 0.143,4.574 -0.289,8.557 1.702,11.65 l -0.018,0.012 c 0.028,0.04 0.06,0.075 0.088,0.115 0.014,0.021 0.021,0.043 0.034,0.064 0.042,0.061 0.097,0.106 0.14,0.165 0.26,0.349 0.536,0.677 0.829,0.985 0.03,0.029 0.056,0.062 0.085,0.091 3.521,3.608 9.222,4.287 13.527,1.344 3.464,-2.367 5.079,-6.43 4.492,-10.319 0.038,2.698 -1.23,5.364 -3.625,7 -0.887,0.607 -1.853,1 -2.841,1.226 C 16.55,9.696 16.838,5.889 14.825,2.943 14.783,2.882 14.728,2.836 14.685,2.777 L 14.703,2.764 C 11.406,-2.059 4.823,-3.297 0,0"
         style="fill:#ffffff;fill-opacity:1;fill-rule:nonzero;stroke:none"
         id="path52" />
    </g>
    <g
       id="g54"
       transform="matrix(0.06762838,0,0,-0.06762838,1.827386,4.6062828)"
       style="fill:#ffffff">
      <path
         d="M 0,0 C 10.036,-6.859 23.732,-4.284 30.591,5.752 L 63.223,-16.429 38.383,-4.854 C 29.109,-14.705 13.812,-16.647 2.291,-8.773 -6.865,-2.514 -11.132,8.224 -9.582,18.502 -9.683,11.371 -6.329,4.326 0,0"
         style="fill:#ffffff;fill-opacity:1;fill-rule:nonzero;stroke:none"
         id="path56" />
    </g>
    <g
       id="g58"
       transform="matrix(0.06762838,0,0,-0.06762838,4.275601,2.6985268)"
       style="fill:#ffffff">
      <path
         d="M 0,0 C -10.036,6.859 -23.732,4.284 -30.591,-5.752 L -63.222,16.429 -38.383,4.854 c 9.274,9.851 24.571,11.793 36.092,3.918 C 6.866,2.514 11.132,-8.224 9.582,-18.502 9.683,-11.371 6.329,-4.326 0,0"
         style="fill:#ffffff;fill-opacity:1;fill-rule:nonzero;stroke:none"
         id="path60" />
    </g>
  </g>
</svg>
